<mxfile host="65bd71144e">
    <diagram id="YnRYegEeElMp-8T-CtOd" name="Page-1">
        <mxGraphModel dx="834" dy="582" grid="1" gridSize="10" guides="1" tooltips="1" connect="1" arrows="1" fold="1" page="1" pageScale="1" pageWidth="827" pageHeight="1169" math="0" shadow="0">
            <root>
                <mxCell id="0"/>
                <mxCell id="1" parent="0"/>
                <mxCell id="10" value="" style="edgeStyle=none;html=1;fontColor=#000000;exitX=1.003;exitY=0.613;exitDx=0;exitDy=0;exitPerimeter=0;" edge="1" parent="1" source="8" target="9">
                    <mxGeometry relative="1" as="geometry"/>
                </mxCell>
                <mxCell id="12" value="&lt;font&gt;Import using &lt;br&gt;Kaggle API&lt;br&gt;to Github Codespaces&lt;br&gt;&lt;/font&gt;" style="edgeLabel;html=1;align=center;verticalAlign=middle;resizable=0;points=[];fontColor=#000000;" vertex="1" connectable="0" parent="10">
                    <mxGeometry x="-0.14" y="2" relative="1" as="geometry">
                        <mxPoint x="5" y="6" as="offset"/>
                    </mxGeometry>
                </mxCell>
                <mxCell id="8" value="" style="rounded=0;whiteSpace=wrap;html=1;dashed=1;" vertex="1" parent="1">
                    <mxGeometry x="11" y="66" width="160" height="320" as="geometry"/>
                </mxCell>
                <mxCell id="2" value="Kaggle" style="ellipse;whiteSpace=wrap;html=1;aspect=fixed;fontColor=#000000;fillColor=#0050ef;strokeColor=#001DBC;fontStyle=1" vertex="1" parent="1">
                    <mxGeometry x="51" y="96" width="80" height="80" as="geometry"/>
                </mxCell>
                <mxCell id="6" value="Dataset 1:&lt;br&gt;Country AQIs" style="rounded=0;whiteSpace=wrap;html=1;fontColor=#000000;fillColor=#1ba1e2;strokeColor=#006EAF;" vertex="1" parent="1">
                    <mxGeometry x="31" y="216" width="120" height="60" as="geometry"/>
                </mxCell>
                <mxCell id="7" value="Dataset 2:&lt;br&gt;Country Deaths" style="rounded=0;whiteSpace=wrap;html=1;fontColor=#000000;fillColor=#1ba1e2;strokeColor=#006EAF;" vertex="1" parent="1">
                    <mxGeometry x="31" y="306" width="120" height="60" as="geometry"/>
                </mxCell>
                <mxCell id="9" value="" style="whiteSpace=wrap;html=1;rounded=0;dashed=1;strokeColor=#000000;" vertex="1" parent="1">
                    <mxGeometry x="320" y="66" width="489" height="390" as="geometry"/>
                </mxCell>
                <mxCell id="22" value="" style="edgeStyle=none;html=1;fontColor=#000000;" edge="1" parent="1" source="17" target="20">
                    <mxGeometry relative="1" as="geometry"/>
                </mxCell>
                <mxCell id="17" value="Step 1: Create tables for both these csv files (step1.py)" style="rounded=0;whiteSpace=wrap;html=1;labelBackgroundColor=none;strokeColor=#36393d;fillColor=#ffcccc;fontColor=#000000;" vertex="1" parent="1">
                    <mxGeometry x="350" y="126" width="110" height="90" as="geometry"/>
                </mxCell>
                <mxCell id="23" value="" style="edgeStyle=none;html=1;fontColor=#000000;" edge="1" parent="1" source="20" target="21">
                    <mxGeometry relative="1" as="geometry"/>
                </mxCell>
                <mxCell id="20" value="Step 2: Insert csv data into both tables (step2.py)" style="rounded=0;whiteSpace=wrap;html=1;labelBackgroundColor=none;strokeColor=#36393d;fillColor=#ffcccc;fontColor=#000000;" vertex="1" parent="1">
                    <mxGeometry x="509.5" y="126" width="110" height="90" as="geometry"/>
                </mxCell>
                <mxCell id="26" value="" style="edgeStyle=none;html=1;fontColor=#000000;entryX=0.75;entryY=0;entryDx=0;entryDy=0;" edge="1" parent="1" source="21" target="25">
                    <mxGeometry relative="1" as="geometry"/>
                </mxCell>
                <mxCell id="21" value="Step 3: Query datasets to answer research questions (step1.py)" style="rounded=0;whiteSpace=wrap;html=1;labelBackgroundColor=none;strokeColor=#36393d;fillColor=#ffcccc;fontColor=#000000;" vertex="1" parent="1">
                    <mxGeometry x="670" y="126" width="110" height="90" as="geometry"/>
                </mxCell>
                <mxCell id="25" value="&lt;ol&gt;&lt;li&gt;&lt;font color=&quot;#000000&quot;&gt;What were the top 10 most polluted countries in 2021?&amp;nbsp; &amp;nbsp;&amp;nbsp;&lt;/font&gt;&lt;/li&gt;&lt;li&gt;&lt;font color=&quot;#000000&quot;&gt;How many people died from air pollution in the top most polluted country in 2019?&lt;/font&gt;&lt;/li&gt;&lt;li&gt;&lt;font color=&quot;#000000&quot;&gt;What was the percentage of deaths (with respect to the total population) in Pakistan in 2019?&lt;/font&gt;&lt;/li&gt;&lt;/ol&gt;" style="rounded=0;whiteSpace=wrap;html=1;labelBackgroundColor=none;strokeColor=#36393D;align=left;verticalAlign=middle;fillColor=#cdeb8b;" vertex="1" parent="1">
                    <mxGeometry x="500" y="256" width="300" height="170" as="geometry"/>
                </mxCell>
                <mxCell id="27" value="GIthub Codespaces" style="text;html=1;strokeColor=none;fillColor=none;align=center;verticalAlign=middle;whiteSpace=wrap;rounded=0;labelBackgroundColor=none;fontColor=#000000;fontStyle=1" vertex="1" parent="1">
                    <mxGeometry x="509.5" y="76" width="170" height="30" as="geometry"/>
                </mxCell>
                <mxCell id="28" value="Text" style="text;html=1;strokeColor=none;fillColor=none;align=center;verticalAlign=middle;whiteSpace=wrap;rounded=0;labelBackgroundColor=none;fontColor=#000000;" vertex="1" parent="1">
                    <mxGeometry x="390" y="180" width="60" height="30" as="geometry"/>
                </mxCell>
                <mxCell id="29" value="Text" style="text;html=1;strokeColor=none;fillColor=none;align=center;verticalAlign=middle;whiteSpace=wrap;rounded=0;labelBackgroundColor=none;fontColor=#000000;" vertex="1" parent="1">
                    <mxGeometry x="390" y="180" width="60" height="30" as="geometry"/>
                </mxCell>
                <mxCell id="30" value="&lt;b&gt;&lt;font style=&quot;font-size: 19px&quot;&gt;PART 2&lt;/font&gt;&lt;/b&gt;" style="text;html=1;strokeColor=none;fillColor=none;align=center;verticalAlign=middle;whiteSpace=wrap;rounded=0;labelBackgroundColor=none;fontColor=#000000;" vertex="1" parent="1">
                    <mxGeometry x="52" y="20" width="99" height="30" as="geometry"/>
                </mxCell>
                <mxCell id="31" value="&lt;b&gt;&lt;font style=&quot;font-size: 19px&quot;&gt;PART 3&lt;/font&gt;&lt;/b&gt;" style="text;html=1;strokeColor=none;fillColor=none;align=center;verticalAlign=middle;whiteSpace=wrap;rounded=0;labelBackgroundColor=none;fontColor=#000000;" vertex="1" parent="1">
                    <mxGeometry x="530" y="20" width="99" height="30" as="geometry"/>
                </mxCell>
            </root>
        </mxGraphModel>
    </diagram>
</mxfile>